<?xml version="1.0" encoding="UTF-8"?>
<svg version="1.1" xmlns="http://www.w3.org/2000/svg" width="512" height="512">
<path d="M0 0 C0.78007919 -0.00671722 1.56015839 -0.01343445 2.36387634 -0.02035522 C4.9201409 -0.03921369 7.47614108 -0.04325357 10.0324707 -0.04541016 C11.82835493 -0.05184776 13.62423814 -0.05857682 15.42012024 -0.06558228 C19.17821683 -0.07752562 22.93622172 -0.08126626 26.69433594 -0.08007812 C31.47751145 -0.07987539 36.2600898 -0.10714346 41.0431242 -0.14162254 C44.75208665 -0.16401464 48.46090833 -0.16791188 52.16993141 -0.16685867 C53.93154769 -0.16919746 55.69316889 -0.17792223 57.45471764 -0.19352341 C76.09903867 -0.34316032 91.62496507 3.76621102 105.48950195 16.95068359 C116.35801363 28.09835225 123.08115168 41.7868098 123.0612793 57.51977539 C123.06799652 58.29985458 123.07471375 59.07993378 123.08163452 59.88365173 C123.10049298 62.43991629 123.10453287 64.99591647 123.10668945 67.55224609 C123.11312705 69.34813032 123.11985611 71.14401353 123.12686157 72.93989563 C123.13880492 76.69799222 123.14254556 80.45599711 123.14135742 84.21411133 C123.14115469 88.99728684 123.16842276 93.77986519 123.20290184 98.56289959 C123.22529394 102.27186204 123.22919118 105.98068372 123.22813797 109.6897068 C123.23047676 111.45132308 123.23920153 113.21294428 123.2548027 114.97449303 C123.40443962 133.61881406 119.29506828 149.14474046 106.1105957 163.00927734 C94.96292704 173.87778902 81.2744695 180.60092707 65.54150391 180.58105469 C64.76142471 180.58777191 63.98134552 180.59448914 63.17762756 180.60140991 C60.62136301 180.62026837 58.06536283 180.62430826 55.5090332 180.62646484 C53.71314897 180.63290245 51.91726577 180.6396315 50.12138367 180.64663696 C46.36328707 180.65858031 42.60528219 180.66232095 38.84716797 180.66113281 C34.06399245 180.66093008 29.28141411 180.68819815 24.49837971 180.72267723 C20.78941726 180.74506933 17.08059557 180.74896657 13.37157249 180.74791336 C11.60995622 180.75025215 9.84833502 180.75897692 8.08678627 180.77457809 C-10.55753477 180.92421501 -26.08346116 176.81484367 -39.94799805 163.63037109 C-50.81650973 152.48270244 -57.53964777 138.79424489 -57.51977539 123.0612793 C-57.52649261 122.2812001 -57.53320984 121.50112091 -57.54013062 120.69740295 C-57.55898908 118.1411384 -57.56302896 115.58513822 -57.56518555 113.02880859 C-57.57162315 111.23292437 -57.57835221 109.43704116 -57.58535767 107.64115906 C-57.59730101 103.88306246 -57.60104165 100.12505758 -57.59985352 96.36694336 C-57.59965078 91.58376784 -57.62691885 86.8011895 -57.66139793 82.0181551 C-57.68379003 78.30919265 -57.68768727 74.60037096 -57.68663406 70.89134789 C-57.68897285 69.12973161 -57.69769762 67.36811041 -57.7132988 65.60656166 C-57.86293571 46.96224063 -53.75356437 31.43631423 -40.5690918 17.57177734 C-29.42142314 6.70326566 -15.73296559 -0.01987238 0 0 Z M-12.22924805 47.29052734 C-16.71331348 53.10622433 -17.348047 59.21223819 -17.37451172 66.35253906 C-17.38089157 67.52750946 -17.38727142 68.70247986 -17.3938446 69.91305542 C-17.39495743 71.16941803 -17.39607025 72.42578064 -17.3972168 73.72021484 C-17.4005452 75.02451447 -17.4038736 76.32881409 -17.40730286 77.67263794 C-17.41327258 80.4279259 -17.41514497 83.1831826 -17.41455078 85.93847656 C-17.41444925 89.4508224 -17.42810166 92.96296569 -17.44532299 96.4752636 C-17.45918414 99.84858337 -17.45853342 103.22186701 -17.4597168 106.59521484 C-17.46690231 107.84752899 -17.47408783 109.09984314 -17.48149109 110.3901062 C-17.45701693 119.78698341 -17.05279027 128.21559146 -10.22924805 135.29052734 C-4.41355106 139.77459278 1.6924628 140.40932629 8.83276367 140.43579102 C10.00773407 140.44217087 11.18270447 140.44855072 12.39328003 140.4551239 C13.64964264 140.45623672 14.90600525 140.45734955 16.20043945 140.45849609 C17.50473907 140.46182449 18.8090387 140.46515289 20.15286255 140.46858215 C22.90815051 140.47455187 25.6634072 140.47642427 28.41870117 140.47583008 C31.93104701 140.47572855 35.4431903 140.48938095 38.9554882 140.50660229 C42.32880798 140.52046344 45.70209162 140.51981272 49.07543945 140.52099609 C50.95391068 140.53177437 50.95391068 140.53177437 52.87033081 140.54277039 C62.26720802 140.51829622 70.69581606 140.11406957 77.77075195 133.29052734 C82.25481738 127.47483036 82.8895509 121.3688165 82.91601562 114.22851562 C82.92239548 113.05354523 82.92877533 111.87857483 82.93534851 110.66799927 C82.93646133 109.41163666 82.93757416 108.15527405 82.9387207 106.86083984 C82.9420491 105.55654022 82.9453775 104.2522406 82.94880676 102.90841675 C82.95477648 100.15312879 82.95664888 97.39787209 82.95605469 94.64257812 C82.95595316 91.13023228 82.96960556 87.618089 82.9868269 84.10579109 C83.00068805 80.73247132 83.00003733 77.35918768 83.0012207 73.98583984 C83.01199898 72.10736862 83.01199898 72.10736862 83.022995 70.19094849 C82.99852083 60.79407128 82.59429418 52.36546323 75.77075195 45.29052734 C69.95505497 40.80646191 63.84904111 40.17172839 56.70874023 40.14526367 C55.53376984 40.13888382 54.35879944 40.13250397 53.14822388 40.12593079 C51.89186127 40.12481796 50.63549866 40.12370514 49.34106445 40.12255859 C48.03676483 40.11923019 46.73246521 40.11590179 45.38864136 40.11247253 C42.6333534 40.10650281 39.8780967 40.10463042 37.12280273 40.10522461 C33.61045689 40.10532614 30.09831361 40.09167374 26.5860157 40.0744524 C23.21269592 40.06059125 19.83941229 40.06124197 16.46606445 40.06005859 C15.21375031 40.05287308 13.96143616 40.04568756 12.6711731 40.0382843 C3.27429589 40.06275847 -5.15431216 40.46698512 -12.22924805 47.29052734 Z " fill="#15DEFE" transform="translate(57.229248046875,331.70947265625)"/>
<path d="M0 0 C0.78007919 -0.00671722 1.56015839 -0.01343445 2.36387634 -0.02035522 C4.9201409 -0.03921369 7.47614108 -0.04325357 10.0324707 -0.04541016 C11.82835493 -0.05184776 13.62423814 -0.05857682 15.42012024 -0.06558228 C19.17821683 -0.07752562 22.93622172 -0.08126626 26.69433594 -0.08007812 C31.47751145 -0.07987539 36.2600898 -0.10714346 41.0431242 -0.14162254 C44.75208665 -0.16401464 48.46090833 -0.16791188 52.16993141 -0.16685867 C53.93154769 -0.16919746 55.69316889 -0.17792223 57.45471764 -0.19352341 C76.09903867 -0.34316032 91.62496507 3.76621102 105.48950195 16.95068359 C116.35801363 28.09835225 123.08115168 41.7868098 123.0612793 57.51977539 C123.06799652 58.29985458 123.07471375 59.07993378 123.08163452 59.88365173 C123.10049298 62.43991629 123.10453287 64.99591647 123.10668945 67.55224609 C123.11312705 69.34813032 123.11985611 71.14401353 123.12686157 72.93989563 C123.13880492 76.69799222 123.14254556 80.45599711 123.14135742 84.21411133 C123.14115469 88.99728684 123.16842276 93.77986519 123.20290184 98.56289959 C123.22529394 102.27186204 123.22919118 105.98068372 123.22813797 109.6897068 C123.23047676 111.45132308 123.23920153 113.21294428 123.2548027 114.97449303 C123.40443962 133.61881406 119.29506828 149.14474046 106.1105957 163.00927734 C94.96292704 173.87778902 81.2744695 180.60092707 65.54150391 180.58105469 C64.76142471 180.58777191 63.98134552 180.59448914 63.17762756 180.60140991 C60.62136301 180.62026837 58.06536283 180.62430826 55.5090332 180.62646484 C53.71314897 180.63290245 51.91726577 180.6396315 50.12138367 180.64663696 C46.36328707 180.65858031 42.60528219 180.66232095 38.84716797 180.66113281 C34.06399245 180.66093008 29.28141411 180.68819815 24.49837971 180.72267723 C20.78941726 180.74506933 17.08059557 180.74896657 13.37157249 180.74791336 C11.60995622 180.75025215 9.84833502 180.75897692 8.08678627 180.77457809 C-10.55753477 180.92421501 -26.08346116 176.81484367 -39.94799805 163.63037109 C-50.81650973 152.48270244 -57.53964777 138.79424489 -57.51977539 123.0612793 C-57.52649261 122.2812001 -57.53320984 121.50112091 -57.54013062 120.69740295 C-57.55898908 118.1411384 -57.56302896 115.58513822 -57.56518555 113.02880859 C-57.57162315 111.23292437 -57.57835221 109.43704116 -57.58535767 107.64115906 C-57.59730101 103.88306246 -57.60104165 100.12505758 -57.59985352 96.36694336 C-57.59965078 91.58376784 -57.62691885 86.8011895 -57.66139793 82.0181551 C-57.68379003 78.30919265 -57.68768727 74.60037096 -57.68663406 70.89134789 C-57.68897285 69.12973161 -57.69769762 67.36811041 -57.7132988 65.60656166 C-57.86293571 46.96224063 -53.75356437 31.43631423 -40.5690918 17.57177734 C-29.42142314 6.70326566 -15.73296559 -0.01987238 0 0 Z M-12.22924805 47.29052734 C-16.71331348 53.10622433 -17.348047 59.21223819 -17.37451172 66.35253906 C-17.38089157 67.52750946 -17.38727142 68.70247986 -17.3938446 69.91305542 C-17.39495743 71.16941803 -17.39607025 72.42578064 -17.3972168 73.72021484 C-17.4005452 75.02451447 -17.4038736 76.32881409 -17.40730286 77.67263794 C-17.41327258 80.4279259 -17.41514497 83.1831826 -17.41455078 85.93847656 C-17.41444925 89.4508224 -17.42810166 92.96296569 -17.44532299 96.4752636 C-17.45918414 99.84858337 -17.45853342 103.22186701 -17.4597168 106.59521484 C-17.46690231 107.84752899 -17.47408783 109.09984314 -17.48149109 110.3901062 C-17.45701693 119.78698341 -17.05279027 128.21559146 -10.22924805 135.29052734 C-4.41355106 139.77459278 1.6924628 140.40932629 8.83276367 140.43579102 C10.00773407 140.44217087 11.18270447 140.44855072 12.39328003 140.4551239 C13.64964264 140.45623672 14.90600525 140.45734955 16.20043945 140.45849609 C17.50473907 140.46182449 18.8090387 140.46515289 20.15286255 140.46858215 C22.90815051 140.47455187 25.6634072 140.47642427 28.41870117 140.47583008 C31.93104701 140.47572855 35.4431903 140.48938095 38.9554882 140.50660229 C42.32880798 140.52046344 45.70209162 140.51981272 49.07543945 140.52099609 C50.95391068 140.53177437 50.95391068 140.53177437 52.87033081 140.54277039 C62.26720802 140.51829622 70.69581606 140.11406957 77.77075195 133.29052734 C82.25481738 127.47483036 82.8895509 121.3688165 82.91601562 114.22851562 C82.92239548 113.05354523 82.92877533 111.87857483 82.93534851 110.66799927 C82.93646133 109.41163666 82.93757416 108.15527405 82.9387207 106.86083984 C82.9420491 105.55654022 82.9453775 104.2522406 82.94880676 102.90841675 C82.95477648 100.15312879 82.95664888 97.39787209 82.95605469 94.64257812 C82.95595316 91.13023228 82.96960556 87.618089 82.9868269 84.10579109 C83.00068805 80.73247132 83.00003733 77.35918768 83.0012207 73.98583984 C83.01199898 72.10736862 83.01199898 72.10736862 83.022995 70.19094849 C82.99852083 60.79407128 82.59429418 52.36546323 75.77075195 45.29052734 C69.95505497 40.80646191 63.84904111 40.17172839 56.70874023 40.14526367 C55.53376984 40.13888382 54.35879944 40.13250397 53.14822388 40.12593079 C51.89186127 40.12481796 50.63549866 40.12370514 49.34106445 40.12255859 C48.03676483 40.11923019 46.73246521 40.11590179 45.38864136 40.11247253 C42.6333534 40.10650281 39.8780967 40.10463042 37.12280273 40.10522461 C33.61045689 40.10532614 30.09831361 40.09167374 26.5860157 40.0744524 C23.21269592 40.06059125 19.83941229 40.06124197 16.46606445 40.06005859 C15.21375031 40.05287308 13.96143616 40.04568756 12.6711731 40.0382843 C3.27429589 40.06275847 -5.15431216 40.46698512 -12.22924805 47.29052734 Z " fill="#49B0FE" transform="translate(389.229248046875,-0.29052734375)"/>
<path d="M0 0 C0.78007919 -0.00671722 1.56015839 -0.01343445 2.36387634 -0.02035522 C4.9201409 -0.03921369 7.47614108 -0.04325357 10.0324707 -0.04541016 C11.82835493 -0.05184776 13.62423814 -0.05857682 15.42012024 -0.06558228 C19.17821683 -0.07752562 22.93622172 -0.08126626 26.69433594 -0.08007812 C31.47751145 -0.07987539 36.2600898 -0.10714346 41.0431242 -0.14162254 C44.75208665 -0.16401464 48.46090833 -0.16791188 52.16993141 -0.16685867 C53.93154769 -0.16919746 55.69316889 -0.17792223 57.45471764 -0.19352341 C76.09903867 -0.34316032 91.62496507 3.76621102 105.48950195 16.95068359 C116.35801363 28.09835225 123.08115168 41.7868098 123.0612793 57.51977539 C123.06799652 58.29985458 123.07471375 59.07993378 123.08163452 59.88365173 C123.10049298 62.43991629 123.10453287 64.99591647 123.10668945 67.55224609 C123.11312705 69.34813032 123.11985611 71.14401353 123.12686157 72.93989563 C123.13880492 76.69799222 123.14254556 80.45599711 123.14135742 84.21411133 C123.14115469 88.99728684 123.16842276 93.77986519 123.20290184 98.56289959 C123.22529394 102.27186204 123.22919118 105.98068372 123.22813797 109.6897068 C123.23047676 111.45132308 123.23920153 113.21294428 123.2548027 114.97449303 C123.40443962 133.61881406 119.29506828 149.14474046 106.1105957 163.00927734 C94.96292704 173.87778902 81.2744695 180.60092707 65.54150391 180.58105469 C64.76142471 180.58777191 63.98134552 180.59448914 63.17762756 180.60140991 C60.62136301 180.62026837 58.06536283 180.62430826 55.5090332 180.62646484 C53.71314897 180.63290245 51.91726577 180.6396315 50.12138367 180.64663696 C46.36328707 180.65858031 42.60528219 180.66232095 38.84716797 180.66113281 C34.06399245 180.66093008 29.28141411 180.68819815 24.49837971 180.72267723 C20.78941726 180.74506933 17.08059557 180.74896657 13.37157249 180.74791336 C11.60995622 180.75025215 9.84833502 180.75897692 8.08678627 180.77457809 C-10.55753477 180.92421501 -26.08346116 176.81484367 -39.94799805 163.63037109 C-50.81650973 152.48270244 -57.53964777 138.79424489 -57.51977539 123.0612793 C-57.52649261 122.2812001 -57.53320984 121.50112091 -57.54013062 120.69740295 C-57.55898908 118.1411384 -57.56302896 115.58513822 -57.56518555 113.02880859 C-57.57162315 111.23292437 -57.57835221 109.43704116 -57.58535767 107.64115906 C-57.59730101 103.88306246 -57.60104165 100.12505758 -57.59985352 96.36694336 C-57.59965078 91.58376784 -57.62691885 86.8011895 -57.66139793 82.0181551 C-57.68379003 78.30919265 -57.68768727 74.60037096 -57.68663406 70.89134789 C-57.68897285 69.12973161 -57.69769762 67.36811041 -57.7132988 65.60656166 C-57.86293571 46.96224063 -53.75356437 31.43631423 -40.5690918 17.57177734 C-29.42142314 6.70326566 -15.73296559 -0.01987238 0 0 Z M-12.22924805 47.29052734 C-16.71331348 53.10622433 -17.348047 59.21223819 -17.37451172 66.35253906 C-17.38089157 67.52750946 -17.38727142 68.70247986 -17.3938446 69.91305542 C-17.39495743 71.16941803 -17.39607025 72.42578064 -17.3972168 73.72021484 C-17.4005452 75.02451447 -17.4038736 76.32881409 -17.40730286 77.67263794 C-17.41327258 80.4279259 -17.41514497 83.1831826 -17.41455078 85.93847656 C-17.41444925 89.4508224 -17.42810166 92.96296569 -17.44532299 96.4752636 C-17.45918414 99.84858337 -17.45853342 103.22186701 -17.4597168 106.59521484 C-17.46690231 107.84752899 -17.47408783 109.09984314 -17.48149109 110.3901062 C-17.45701693 119.78698341 -17.05279027 128.21559146 -10.22924805 135.29052734 C-4.41355106 139.77459278 1.6924628 140.40932629 8.83276367 140.43579102 C10.00773407 140.44217087 11.18270447 140.44855072 12.39328003 140.4551239 C13.64964264 140.45623672 14.90600525 140.45734955 16.20043945 140.45849609 C17.50473907 140.46182449 18.8090387 140.46515289 20.15286255 140.46858215 C22.90815051 140.47455187 25.6634072 140.47642427 28.41870117 140.47583008 C31.93104701 140.47572855 35.4431903 140.48938095 38.9554882 140.50660229 C42.32880798 140.52046344 45.70209162 140.51981272 49.07543945 140.52099609 C50.95391068 140.53177437 50.95391068 140.53177437 52.87033081 140.54277039 C62.26720802 140.51829622 70.69581606 140.11406957 77.77075195 133.29052734 C82.25481738 127.47483036 82.8895509 121.3688165 82.91601562 114.22851562 C82.92239548 113.05354523 82.92877533 111.87857483 82.93534851 110.66799927 C82.93646133 109.41163666 82.93757416 108.15527405 82.9387207 106.86083984 C82.9420491 105.55654022 82.9453775 104.2522406 82.94880676 102.90841675 C82.95477648 100.15312879 82.95664888 97.39787209 82.95605469 94.64257812 C82.95595316 91.13023228 82.96960556 87.618089 82.9868269 84.10579109 C83.00068805 80.73247132 83.00003733 77.35918768 83.0012207 73.98583984 C83.01199898 72.10736862 83.01199898 72.10736862 83.022995 70.19094849 C82.99852083 60.79407128 82.59429418 52.36546323 75.77075195 45.29052734 C69.95505497 40.80646191 63.84904111 40.17172839 56.70874023 40.14526367 C55.53376984 40.13888382 54.35879944 40.13250397 53.14822388 40.12593079 C51.89186127 40.12481796 50.63549866 40.12370514 49.34106445 40.12255859 C48.03676483 40.11923019 46.73246521 40.11590179 45.38864136 40.11247253 C42.6333534 40.10650281 39.8780967 40.10463042 37.12280273 40.10522461 C33.61045689 40.10532614 30.09831361 40.09167374 26.5860157 40.0744524 C23.21269592 40.06059125 19.83941229 40.06124197 16.46606445 40.06005859 C15.21375031 40.05287308 13.96143616 40.04568756 12.6711731 40.0382843 C3.27429589 40.06275847 -5.15431216 40.46698512 -12.22924805 47.29052734 Z " fill="#15DEFE" transform="translate(57.229248046875,-0.29052734375)"/>
<path d="M0 0 C4.89872999 2.85759249 7.79346527 7.1303958 9.5625 12.4375 C9.66062689 14.10682151 9.70174209 15.77976577 9.70967102 17.45195007 C9.71682632 18.48786789 9.72398163 19.52378571 9.73135376 20.59109497 C9.73404266 21.72723236 9.73673157 22.86336975 9.73950195 24.03393555 C9.74607315 25.23096603 9.75264435 26.42799652 9.75941467 27.66130066 C9.77916409 31.63226686 9.79081689 35.60321985 9.80078125 39.57421875 C9.80482992 40.94321017 9.80894688 42.31220139 9.81313133 43.6811924 C9.83218056 50.11512337 9.84641071 56.5490429 9.8547433 62.98299664 C9.86450744 70.39913787 9.8908062 77.81497998 9.93124419 85.23101586 C9.96145647 90.96958528 9.9762171 96.70806923 9.97952431 102.44671661 C9.9818695 105.87096646 9.99075944 109.29489668 10.01598549 112.7190609 C10.04033048 116.54431321 10.03941962 120.36878574 10.0324707 124.1940918 C10.04528076 125.32010803 10.05809082 126.44612427 10.07128906 127.60626221 C10.02259856 134.96904971 9.14902515 140.80469711 3.74609375 146.27734375 C3.16988281 146.63957031 2.59367187 147.00179687 2 147.375 C1.13181641 147.94541016 1.13181641 147.94541016 0.24609375 148.52734375 C-3.37781357 150.48643982 -6.37926073 150.55485726 -10.41796875 150.53515625 C-11.58134766 150.53193359 -12.74472656 150.52871094 -13.94335938 150.52539062 C-15.15830078 150.51701172 -16.37324219 150.50863281 -17.625 150.5 C-18.85154297 150.49548828 -20.07808594 150.49097656 -21.34179688 150.48632812 C-24.37374668 150.47453065 -27.40559906 150.45806921 -30.4375 150.4375 C-30.42861755 151.05866699 -30.41973511 151.67983398 -30.4105835 152.31982422 C-30.32180657 158.80898804 -30.26164 165.29797816 -30.21777344 171.78759766 C-30.19770935 174.2066143 -30.17045157 176.62558276 -30.13574219 179.04443359 C-30.08699659 182.52974368 -30.06447836 186.01441016 -30.046875 189.5 C-30.02622986 190.57427246 -30.00558472 191.64854492 -29.98431396 192.75537109 C-29.98214764 200.07233545 -30.88637674 205.8405558 -36.25390625 211.27734375 C-36.83011719 211.63957031 -37.40632813 212.00179687 -38 212.375 C-38.86818359 212.94541016 -38.86818359 212.94541016 -39.75390625 213.52734375 C-45.37311227 216.56510477 -52.76672797 216.43316692 -58.828125 214.7890625 C-63.83449234 212.55339464 -66.84750522 209.22843455 -69.4375 204.4375 C-70.6021161 200.94365171 -70.60046951 197.7911016 -70.61450195 194.15551758 C-70.62435875 193.04759857 -70.62435875 193.04759857 -70.63441467 191.91729736 C-70.65412815 189.47220758 -70.6658075 187.02717925 -70.67578125 184.58203125 C-70.67985678 183.74526037 -70.6839323 182.90848949 -70.68813133 182.04636192 C-70.70898636 177.61513898 -70.72328906 173.18394694 -70.73266602 168.75268555 C-70.74371361 164.18749441 -70.7780958 159.62279296 -70.81783772 155.05777454 C-70.84405341 151.53774646 -70.85236235 148.01783402 -70.85594749 144.4977169 C-70.86080271 142.81568797 -70.87238625 141.13366383 -70.89098549 139.45173073 C-71.06024795 123.12718088 -71.06024795 123.12718088 -66.4375 116.4375 C-64.62109375 114.59765625 -64.62109375 114.59765625 -62.875 113.5 C-62.29621094 113.11972656 -61.71742188 112.73945312 -61.12109375 112.34765625 C-57.49718643 110.38856018 -54.49573927 110.32014274 -50.45703125 110.33984375 C-49.40878174 110.34234131 -48.36053223 110.34483887 -47.28051758 110.34741211 C-45.95044678 110.35651611 -44.62037598 110.36562012 -43.25 110.375 C-39.021875 110.395625 -34.79375 110.41625 -30.4375 110.4375 C-30.4375 98.5575 -30.4375 86.6775 -30.4375 74.4375 C-38.63434014 74.59487958 -38.63434014 74.59487958 -46.83007812 74.79785156 C-53.57400877 74.86289881 -58.89664824 74.53653483 -64.4375 70.4375 C-66.27734375 68.62109375 -66.27734375 68.62109375 -67.375 66.875 C-67.75527344 66.29621094 -68.13554687 65.71742187 -68.52734375 65.12109375 C-71.56510477 59.50188773 -71.43316692 52.10827203 -69.7890625 46.046875 C-67.55339464 41.04050766 -64.22843455 38.02749478 -59.4375 35.4375 C-56.19998322 34.35832774 -53.85998229 34.32324399 -50.45703125 34.33984375 C-49.29365234 34.34306641 -48.13027344 34.34628906 -46.93164062 34.34960938 C-45.71669922 34.35798828 -44.50175781 34.36636719 -43.25 34.375 C-42.02345703 34.37951172 -40.79691406 34.38402344 -39.53320312 34.38867188 C-36.50125332 34.40046935 -33.46940094 34.41693079 -30.4375 34.4375 C-30.45321045 33.80247559 -30.4689209 33.16745117 -30.48510742 32.51318359 C-30.5477859 29.6130477 -30.58659417 26.71305476 -30.625 23.8125 C-30.65013672 22.81347656 -30.67527344 21.81445312 -30.70117188 20.78515625 C-30.76814001 14.04369727 -30.27039188 9.48171648 -25.5 4.35546875 C-24.819375 3.78441406 -24.13875 3.21335937 -23.4375 2.625 C-22.756875 2.04105469 -22.07625 1.45710937 -21.375 0.85546875 C-15.69091188 -3.30445865 -6.23310185 -2.78348442 0 0 Z " fill="#37C1FE" transform="translate(286.4375,1.5625)"/>
<path d="M0 0 C4.57498557 3.40464042 8.8610727 7.52071811 10.6875 13 C10.77041953 14.9920303 10.79488177 16.98673713 10.78515625 18.98046875 C10.78032227 20.72553711 10.78032227 20.72553711 10.77539062 22.50585938 C10.76282227 24.32827148 10.76282227 24.32827148 10.75 26.1875 C10.74548828 27.41404297 10.74097656 28.64058594 10.73632812 29.90429688 C10.72453065 32.93624668 10.70806921 35.96809906 10.6875 39 C11.64692505 38.99111755 12.6063501 38.98223511 13.59484863 38.9730835 C22.65743447 38.89183009 31.71994594 38.83195441 40.78281403 38.79275131 C45.44162738 38.77191863 50.10014556 38.74368039 54.75878906 38.69824219 C59.25865054 38.6546297 63.75822893 38.63083043 68.25828552 38.62049103 C69.97102817 38.61312721 71.68375615 38.59874745 73.39637756 38.57707977 C90.04631256 38.37489697 90.04631256 38.37489697 96.6875 43 C98.52734375 44.81640625 98.52734375 44.81640625 99.625 46.5625 C100.19541016 47.43068359 100.19541016 47.43068359 100.77734375 48.31640625 C102.49887086 51.50086197 102.82292318 54.16509632 102.86450195 57.71166992 C102.88375481 59.144123 102.88375481 59.144123 102.90339661 60.60551453 C102.91078354 61.63674942 102.91817047 62.66798431 102.92578125 63.73046875 C102.933853 64.79485672 102.94192474 65.85924469 102.95024109 66.95588684 C102.96407822 69.21121595 102.97480203 71.46656598 102.98266602 73.72192383 C102.99984655 77.15682161 103.04373341 80.59074881 103.08789062 84.02539062 C103.09802068 86.21874294 103.1065358 88.41210342 103.11328125 90.60546875 C103.13078934 91.62658249 103.14829742 92.64769623 103.16633606 93.69975281 C103.14479814 100.84622893 102.1052712 106.53812853 96.87109375 111.83984375 C96.29488281 112.20207031 95.71867188 112.56429687 95.125 112.9375 C94.54621094 113.31777344 93.96742188 113.69804687 93.37109375 114.08984375 C87.75188773 117.12760477 80.35827203 116.99566692 74.296875 115.3515625 C69.29050766 113.11589464 66.27749478 109.79093455 63.6875 105 C62.66776871 101.94080612 62.57216398 99.87581975 62.58984375 96.67578125 C62.59467773 95.13374023 62.59467773 95.13374023 62.59960938 93.56054688 C62.61217773 91.95276367 62.61217773 91.95276367 62.625 90.3125 C62.62951172 89.22904297 62.63402344 88.14558594 62.63867188 87.02929688 C62.65046257 84.35280915 62.66691937 81.67643223 62.6875 79 C62.13827126 79.00368717 61.58904251 79.00737434 61.02317047 79.01117325 C47.63472091 79.09966339 34.24632287 79.16552133 20.85764313 79.20724869 C14.382849 79.22810747 7.90826624 79.25639465 1.43359375 79.30175781 C-4.81690036 79.34527539 -11.06719138 79.36914996 -17.31782532 79.37950897 C-19.70041602 79.38688963 -22.08299582 79.40130233 -24.46549988 79.42292023 C-27.80732082 79.4520318 -31.14830666 79.45595262 -34.49023438 79.45410156 C-35.47135193 79.46848267 -36.45246948 79.48286377 -37.46331787 79.49768066 C-44.38261849 79.45631306 -50.10048296 78.17109963 -55.15234375 73.18359375 C-55.51457031 72.60738281 -55.87679687 72.03117187 -56.25 71.4375 C-56.63027344 70.85871094 -57.01054688 70.27992188 -57.40234375 69.68359375 C-60.44010477 64.06438773 -60.30816692 56.67077203 -58.6640625 50.609375 C-56.42839464 45.60300766 -53.10343455 42.58999478 -48.3125 40 C-44.54949626 38.74566542 -41.04039091 38.89304578 -37.125 38.9375 C-36.37541016 38.94201172 -35.62582031 38.94652344 -34.85351562 38.95117188 C-33.00647617 38.96293646 -31.15947787 38.98087135 -29.3125 39 C-29.32821045 38.24380371 -29.3439209 37.48760742 -29.36010742 36.70849609 C-29.42268047 33.26407424 -29.46156205 29.81977226 -29.5 26.375 C-29.52513672 25.18519531 -29.55027344 23.99539062 -29.57617188 22.76953125 C-29.64078962 15.05848041 -29.15924389 10.30837803 -24 4.3125 C-16.89216492 -1.80354414 -8.93787902 -2.69822763 0 0 Z " fill="#28CDFE" transform="translate(153.3125,216)"/>
<path d="M0 0 C0.82639481 -0.0065712 1.65278961 -0.0131424 2.50422668 -0.01991272 C5.24150688 -0.03963618 7.97873218 -0.05130743 10.71606445 -0.0612793 C12.12016036 -0.06739259 12.12016036 -0.06739259 13.55262184 -0.07362938 C18.50903731 -0.09448805 23.46542513 -0.10878953 28.421875 -0.11816406 C33.53184982 -0.12921605 38.6413877 -0.1636026 43.75120831 -0.20333576 C47.6881438 -0.22953194 51.62497576 -0.23785866 55.56199074 -0.24144554 C57.44497433 -0.24630529 59.32795349 -0.2579018 61.21085167 -0.27648354 C63.85315511 -0.30093457 66.49433589 -0.29989904 69.13671875 -0.29296875 C69.90740692 -0.30577881 70.67809509 -0.31858887 71.47213745 -0.33178711 C77.74479706 -0.27214388 83.19562966 1.51513261 87.73168945 5.9934082 C88.2750293 6.85772461 88.2750293 6.85772461 88.8293457 7.73950195 C89.20961914 8.31829102 89.58989258 8.89708008 89.98168945 9.4934082 C91.94078552 13.11731553 92.00920297 16.11876268 91.98950195 20.1574707 C91.98466797 21.90253906 91.98466797 21.90253906 91.97973633 23.68286133 C91.96716797 25.50527344 91.96716797 25.50527344 91.9543457 27.36450195 C91.94983398 28.59104492 91.94532227 29.81758789 91.94067383 31.08129883 C91.92887636 34.11324864 91.91241491 37.14510101 91.8918457 40.17700195 C93.05586914 40.14558105 93.05586914 40.14558105 94.2434082 40.11352539 C97.79275318 40.02987436 101.34189005 39.97818566 104.8918457 39.92700195 C106.11258789 39.89348633 107.33333008 39.8599707 108.59106445 39.82543945 C115.86602625 39.74679122 120.77915816 40.0994713 126.8918457 44.17700195 C128.73168945 45.9934082 128.73168945 45.9934082 129.8293457 47.73950195 C130.39975586 48.60768555 130.39975586 48.60768555 130.98168945 49.4934082 C134.01945048 55.11261422 133.88751263 62.50622992 132.2434082 68.56762695 C130.00774034 73.57399429 126.68278025 76.58700718 121.8918457 79.17700195 C118.59449924 80.27611744 116.16225825 80.29094755 112.69262695 80.2746582 C110.87988281 80.26982422 110.87988281 80.26982422 109.03051758 80.26489258 C107.1365625 80.25232422 107.1365625 80.25232422 105.2043457 80.23950195 C103.29298828 80.23273438 103.29298828 80.23273438 101.34301758 80.22583008 C98.19258007 80.21403069 95.04223622 80.19756793 91.8918457 80.17700195 C91.90755615 80.93319824 91.9232666 81.68939453 91.93945312 82.46850586 C92.00202617 85.91292772 92.04090776 89.35722969 92.0793457 92.80200195 C92.10448242 93.99180664 92.12961914 95.18161133 92.15551758 96.4074707 C92.22013532 104.11852154 91.73858959 108.86862392 86.5793457 114.86450195 C80.79278522 119.84363539 76.22524117 120.69092709 68.72387695 120.45043945 C61.85303461 119.78704778 58.59383643 116.10779909 54.30981445 111.11450195 C51.62215741 107.44211106 51.76992757 104.18402139 51.77832031 99.77783203 C51.77817429 99.13365829 51.77802826 98.48948456 51.77787781 97.82579041 C51.77857375 95.69933693 51.78635122 93.57297135 51.79418945 91.4465332 C51.79605476 89.97108508 51.79747813 88.49563634 51.79847717 87.02018738 C51.80229344 83.138746 51.81211614 79.25734211 51.82318115 75.37591553 C51.8334144 71.41443387 51.8379789 67.45294615 51.84301758 63.49145508 C51.8537392 55.71995363 51.87080495 47.94848304 51.8918457 40.17700195 C51.15792603 40.1858844 50.42400635 40.19476685 49.66784668 40.20391846 C42.72440916 40.28433142 35.78104196 40.34510144 28.83725739 40.38425064 C25.26801052 40.4050551 21.69915097 40.43323964 18.13012695 40.47875977 C14.68064104 40.52247596 11.23152579 40.54619267 7.78178406 40.55651093 C5.83645388 40.567412 3.89127118 40.59859661 1.94616699 40.63018799 C-5.92617965 40.63216895 -12.0800945 40.15374889 -17.94799805 34.3605957 C-18.49133789 33.4962793 -18.49133789 33.4962793 -19.0456543 32.61450195 C-19.42592773 32.03571289 -19.80620117 31.45692383 -20.19799805 30.8605957 C-23.23575907 25.24138969 -23.10382122 17.84777398 -21.4597168 11.78637695 C-19.22404894 6.78000961 -15.89908884 3.76699673 -11.1081543 1.17700195 C-7.37413206 -0.06767212 -3.89040992 0.01339756 0 0 Z " fill="#46B3FE" transform="translate(318.108154296875,214.822998046875)"/>
<path d="M0 0 C4.89872999 2.85759249 7.79346527 7.1303958 9.5625 12.4375 C9.64541953 14.4295303 9.66988177 16.42423713 9.66015625 18.41796875 C9.65693359 19.58134766 9.65371094 20.74472656 9.65039062 21.94335938 C9.63782227 23.76577148 9.63782227 23.76577148 9.625 25.625 C9.62048828 26.85154297 9.61597656 28.07808594 9.61132812 29.34179688 C9.59953065 32.37374668 9.58306921 35.40559906 9.5625 38.4375 C10.68108398 38.4060791 10.68108398 38.4060791 11.82226562 38.37402344 C15.23553725 38.29033366 18.64859224 38.23867206 22.0625 38.1875 C23.23554688 38.15398437 24.40859375 38.12046875 25.6171875 38.0859375 C32.47883696 38.00884032 37.91752513 38.26143654 43.5625 42.4375 C45.40234375 44.25390625 45.40234375 44.25390625 46.5 46 C46.88027344 46.57878906 47.26054687 47.15757812 47.65234375 47.75390625 C49.61143982 51.37781357 49.67985726 54.37926073 49.66015625 58.41796875 C49.65532227 60.16303711 49.65532227 60.16303711 49.65039062 61.94335938 C49.63782227 63.76577148 49.63782227 63.76577148 49.625 65.625 C49.62048828 66.85154297 49.61597656 68.07808594 49.61132812 69.34179688 C49.59953065 72.37374668 49.58306921 75.40559906 49.5625 78.4375 C50.30822266 78.41655273 51.05394531 78.39560547 51.82226562 78.37402344 C55.23553725 78.29033366 58.64859224 78.23867206 62.0625 78.1875 C63.23554688 78.15398437 64.40859375 78.12046875 65.6171875 78.0859375 C72.47883696 78.00884032 77.91752513 78.26143654 83.5625 82.4375 C85.40234375 84.25390625 85.40234375 84.25390625 86.5 86 C86.88027344 86.57878906 87.26054687 87.15757812 87.65234375 87.75390625 C90.69010477 93.37311227 90.55816692 100.76672797 88.9140625 106.828125 C86.67839464 111.83449234 83.35343455 114.84750522 78.5625 117.4375 C75.61774474 118.41908509 73.6479154 118.5806311 70.57543945 118.61450195 C69.05289299 118.63375481 69.05289299 118.63375481 67.49958801 118.65339661 C66.40273178 118.66078354 65.30587555 118.66817047 64.17578125 118.67578125 C63.04480515 118.683853 61.91382904 118.69192474 60.74858093 118.70024109 C58.3520155 118.71408011 55.95543038 118.72480307 53.55883789 118.73266602 C49.90667967 118.74985093 46.2554332 118.79373708 42.60351562 118.83789062 C40.27344415 118.84802019 37.94336498 118.85653547 35.61328125 118.86328125 C34.52654617 118.88078934 33.4398111 118.89829742 32.32014465 118.91633606 C24.98006317 118.89550362 19.1772307 118.00618317 13.72265625 112.62109375 C13.36042969 112.04488281 12.99820313 111.46867187 12.625 110.875 C12.24472656 110.29621094 11.86445313 109.71742188 11.47265625 109.12109375 C9.51356018 105.49718643 9.44514274 102.49573927 9.46484375 98.45703125 C9.46806641 97.29365234 9.47128906 96.13027344 9.47460938 94.93164062 C9.48717773 93.10922852 9.48717773 93.10922852 9.5 91.25 C9.50451172 90.02345703 9.50902344 88.79691406 9.51367188 87.53320312 C9.52546935 84.50125332 9.54193079 81.46940094 9.5625 78.4375 C8.81677734 78.45844727 8.07105469 78.47939453 7.30273438 78.50097656 C3.88946275 78.58466634 0.47640776 78.63632794 -2.9375 78.6875 C-4.11054688 78.72101563 -5.28359375 78.75453125 -6.4921875 78.7890625 C-13.35383696 78.86615968 -18.79252513 78.61356346 -24.4375 74.4375 C-26.27734375 72.62109375 -26.27734375 72.62109375 -27.375 70.875 C-27.75527344 70.29621094 -28.13554687 69.71742188 -28.52734375 69.12109375 C-30.30038221 65.84135307 -30.5742319 63.10339717 -30.61450195 59.45043945 C-30.62733719 58.43540848 -30.64017242 57.4203775 -30.65339661 56.37458801 C-30.66078354 55.27773178 -30.66817047 54.18087555 -30.67578125 53.05078125 C-30.683853 51.91980515 -30.69192474 50.78882904 -30.70024109 49.62358093 C-30.71408011 47.2270155 -30.72480307 44.83043038 -30.73266602 42.43383789 C-30.74985093 38.78167967 -30.79373708 35.1304332 -30.83789062 31.47851562 C-30.84802019 29.14844415 -30.85653547 26.81836498 -30.86328125 24.48828125 C-30.88078934 23.40154617 -30.89829742 22.3148111 -30.91633606 21.19514465 C-30.89550362 13.85506317 -30.00618317 8.0522307 -24.62109375 2.59765625 C-24.04488281 2.23542969 -23.46867188 1.87320312 -22.875 1.5 C-22.00681641 0.92958984 -22.00681641 0.92958984 -21.12109375 0.34765625 C-14.98998289 -2.96684219 -6.30251123 -2.81448021 0 0 Z " fill="#38BFFE" transform="translate(246.4375,393.5625)"/>
<path d="M0 0 C4.89872999 2.85759249 7.79346527 7.1303958 9.5625 12.4375 C9.64541953 14.4295303 9.66988177 16.42423713 9.66015625 18.41796875 C9.65532227 20.16303711 9.65532227 20.16303711 9.65039062 21.94335938 C9.63782227 23.76577148 9.63782227 23.76577148 9.625 25.625 C9.62048828 26.85154297 9.61597656 28.07808594 9.61132812 29.34179688 C9.59953065 32.37374668 9.58306921 35.40559906 9.5625 38.4375 C10.18705078 38.41655273 10.81160156 38.39560547 11.45507812 38.37402344 C14.3240506 38.29014156 17.19276408 38.23861489 20.0625 38.1875 C21.04476562 38.15398437 22.02703125 38.12046875 23.0390625 38.0859375 C29.45598795 38.00037849 34.24654658 38.6816453 39.5625 42.4375 C41.40234375 44.25390625 41.40234375 44.25390625 42.5 46 C43.07041016 46.86818359 43.07041016 46.86818359 43.65234375 47.75390625 C46.69010477 53.37311227 46.55816692 60.76672797 44.9140625 66.828125 C42.67839464 71.83449234 39.35343455 74.84750522 34.5625 77.4375 C31.76297481 78.37067506 30.05085894 78.568874 27.1554718 78.58467102 C25.80353477 78.59540398 25.80353477 78.59540398 24.42428589 78.60635376 C23.43776031 78.60904266 22.45123474 78.61173157 21.43481445 78.61450195 C20.39384109 78.62107315 19.35286774 78.62764435 18.28034973 78.63441467 C14.82882619 78.65415544 11.3773462 78.66581263 7.92578125 78.67578125 C6.15761079 78.68189454 6.15761079 78.68189454 4.35371971 78.68813133 C-1.88649953 78.70899631 -8.12669677 78.72329568 -14.36694336 78.73266602 C-20.80862866 78.74372566 -27.24996808 78.77811968 -33.69153118 78.81783772 C-38.64757423 78.84400009 -43.60353486 78.85235759 -48.55964088 78.85594749 C-50.93384955 78.86081512 -53.30805449 78.87243403 -55.68219566 78.89098549 C-59.00935526 78.91536577 -62.33561998 78.91441335 -65.6628418 78.9074707 C-66.63924622 78.92028076 -67.61565063 78.93309082 -68.62164307 78.94628906 C-75.52288458 78.89393877 -81.23931242 77.59494634 -86.27734375 72.62109375 C-86.63957031 72.04488281 -87.00179688 71.46867187 -87.375 70.875 C-87.75527344 70.29621094 -88.13554687 69.71742188 -88.52734375 69.12109375 C-91.56510477 63.50188773 -91.43316692 56.10827203 -89.7890625 50.046875 C-87.55339464 45.04050766 -84.22843455 42.02749478 -79.4375 39.4375 C-76.58262885 38.48587628 -74.83295683 38.31586861 -71.87426758 38.32397461 C-70.95353958 38.32405014 -70.03281158 38.32412567 -69.08418274 38.32420349 C-67.59811775 38.33194542 -67.59811775 38.33194542 -66.08203125 38.33984375 C-65.06525803 38.3412587 -64.0484848 38.34267365 -63.00090027 38.34413147 C-59.75057036 38.34973293 -56.50030912 38.36228568 -53.25 38.375 C-51.04752704 38.38001481 -48.84505299 38.38457775 -46.64257812 38.38867188 C-41.24086196 38.39970283 -35.83918588 38.41644238 -30.4375 38.4375 C-30.45844727 37.69177734 -30.47939453 36.94605469 -30.50097656 36.17773438 C-30.58466634 32.76446275 -30.63632794 29.35140776 -30.6875 25.9375 C-30.73777344 24.17792969 -30.73777344 24.17792969 -30.7890625 22.3828125 C-30.86615968 15.52116304 -30.61356346 10.08247487 -26.4375 4.4375 C-24.62109375 2.59765625 -24.62109375 2.59765625 -22.875 1.5 C-22.29621094 1.11972656 -21.71742188 0.73945313 -21.12109375 0.34765625 C-14.98998289 -2.96684219 -6.30251123 -2.81448021 0 0 Z " fill="#4BAEFE" transform="translate(466.4375,433.5625)"/>
<path d="M0 0 C4.89872999 2.85759249 7.79346527 7.1303958 9.5625 12.4375 C9.6721616 14.61807744 9.72151643 16.80184836 9.73950195 18.98510742 C9.74607315 19.64569153 9.75264435 20.30627563 9.75941467 20.98687744 C9.77911706 23.17224245 9.79080539 25.35753872 9.80078125 27.54296875 C9.80485678 28.29147913 9.8089323 29.03998951 9.81313133 29.81118202 C9.83398233 33.77556709 9.84828636 37.73991768 9.85766602 41.7043457 C9.86870874 45.78529005 9.90308604 49.86568588 9.94283772 53.94643688 C9.96907513 57.09588078 9.97736428 60.2451956 9.98094749 63.39473915 C9.98579768 64.89814253 9.99736675 66.40154075 10.01598549 67.90483665 C10.10946479 75.95493708 10.15949725 82.54415527 5.5625 89.4375 C3.74609375 91.27734375 3.74609375 91.27734375 2 92.375 C1.42121094 92.75527344 0.84242188 93.13554687 0.24609375 93.52734375 C-3.50439589 95.55487063 -6.70767835 95.57950069 -10.89331055 95.61450195 C-11.54414108 95.62107315 -12.19497162 95.62764435 -12.86552429 95.63441467 C-15.01842371 95.65411548 -17.17125335 95.66580509 -19.32421875 95.67578125 C-20.43043548 95.68189454 -20.43043548 95.68189454 -21.55900002 95.68813133 C-25.46503035 95.70898175 -29.37102569 95.72328598 -33.27709961 95.73266602 C-37.29751357 95.74370805 -41.31737064 95.77808466 -45.33758831 95.81783772 C-48.44070919 95.84407821 -51.5436991 95.85236455 -54.64692116 95.85594749 C-56.12799641 95.86079697 -57.60906646 95.87236397 -59.09003258 95.89098549 C-67.09044755 95.98530187 -73.58196012 95.98939956 -80.4375 91.4375 C-82.27734375 89.62109375 -82.27734375 89.62109375 -83.375 87.875 C-83.75527344 87.29621094 -84.13554687 86.71742188 -84.52734375 86.12109375 C-87.56510477 80.50188773 -87.43316692 73.10827203 -85.7890625 67.046875 C-83.55339464 62.04050766 -80.22843455 59.02749478 -75.4375 56.4375 C-72.68164648 55.51888216 -71.0778931 55.31545678 -68.24145508 55.32397461 C-67.40081009 55.32405014 -66.5601651 55.32412567 -65.69404602 55.32420349 C-64.79083115 55.32936478 -63.88761627 55.33452606 -62.95703125 55.33984375 C-62.02904221 55.3412587 -61.10105316 55.34267365 -60.14494324 55.34413147 C-57.17992942 55.34973063 -54.21499101 55.36228296 -51.25 55.375 C-49.24023547 55.38001511 -47.23046975 55.384578 -45.22070312 55.38867188 C-40.29293968 55.39969979 -35.36523263 55.41696383 -30.4375 55.4375 C-30.45844727 54.17679687 -30.47939453 52.91609375 -30.50097656 51.6171875 C-30.57370087 46.91336549 -30.61941736 42.2095926 -30.65722656 37.50537109 C-30.67726836 35.47436143 -30.70450947 33.44340894 -30.73925781 31.41259766 C-30.78810414 28.48325444 -30.81054343 25.554678 -30.828125 22.625 C-30.84877014 21.72571777 -30.86941528 20.82643555 -30.89068604 19.89990234 C-30.89306068 13.13817593 -29.48354442 7.52284822 -24.62109375 2.59765625 C-23.75677734 2.05431641 -23.75677734 2.05431641 -22.875 1.5 C-22.29621094 1.11972656 -21.71742188 0.73945313 -21.12109375 0.34765625 C-14.98998289 -2.96684219 -6.30251123 -2.81448021 0 0 Z " fill="#4DADFE" transform="translate(502.4375,296.5625)"/>
<path d="M0 0 C4.89872999 2.85759249 7.79346527 7.1303958 9.5625 12.4375 C9.6721616 14.61807744 9.72151643 16.80184836 9.73950195 18.98510742 C9.74607315 19.64569153 9.75264435 20.30627563 9.75941467 20.98687744 C9.77911706 23.17224245 9.79080539 25.35753872 9.80078125 27.54296875 C9.80485678 28.29147913 9.8089323 29.03998951 9.81313133 29.81118202 C9.83398233 33.77556709 9.84828636 37.73991768 9.85766602 41.7043457 C9.86870874 45.78529005 9.90308604 49.86568588 9.94283772 53.94643688 C9.96907513 57.09588078 9.97736428 60.2451956 9.98094749 63.39473915 C9.98579768 64.89814253 9.99736675 66.40154075 10.01598549 67.90483665 C10.10946479 75.95493708 10.15949725 82.54415527 5.5625 89.4375 C3.74609375 91.27734375 3.74609375 91.27734375 2 92.375 C1.42121094 92.75527344 0.84242188 93.13554687 0.24609375 93.52734375 C-2.70597718 95.12324288 -5.21563693 95.56921284 -8.5065918 95.61450195 C-9.32141525 95.62733719 -10.13623871 95.64017242 -10.97575378 95.65339661 C-11.85387222 95.66078354 -12.73199066 95.66817047 -13.63671875 95.67578125 C-15.00024223 95.68788887 -15.00024223 95.68788887 -16.39131165 95.70024109 C-18.31708881 95.71407275 -20.2428904 95.72479901 -22.16870117 95.73266602 C-25.09667251 95.7498339 -28.0235012 95.79372265 -30.95117188 95.83789062 C-32.82551256 95.84802209 -34.69986282 95.85653677 -36.57421875 95.86328125 C-37.87621468 95.88954338 -37.87621468 95.88954338 -39.20451355 95.91633606 C-45.8559967 95.89290753 -51.43899044 94.39781199 -56.27734375 89.62109375 C-56.63957031 89.04488281 -57.00179688 88.46867187 -57.375 87.875 C-57.75527344 87.29621094 -58.13554687 86.71742188 -58.52734375 86.12109375 C-61.56510477 80.50188773 -61.43316692 73.10827203 -59.7890625 67.046875 C-57.55339464 62.04050766 -54.22843455 59.02749478 -49.4375 56.4375 C-45.67449626 55.18316542 -42.16539091 55.33054578 -38.25 55.375 C-37.50041016 55.37951172 -36.75082031 55.38402344 -35.97851562 55.38867188 C-34.13147617 55.40043646 -32.28447787 55.41837135 -30.4375 55.4375 C-30.45844727 54.17679687 -30.47939453 52.91609375 -30.50097656 51.6171875 C-30.57370087 46.91336549 -30.61941736 42.2095926 -30.65722656 37.50537109 C-30.67726836 35.47436143 -30.70450947 33.44340894 -30.73925781 31.41259766 C-30.78810414 28.48325444 -30.81054343 25.554678 -30.828125 22.625 C-30.84877014 21.72571777 -30.86941528 20.82643555 -30.89068604 19.89990234 C-30.89306068 13.13817593 -29.48354442 7.52284822 -24.62109375 2.59765625 C-23.75677734 2.05431641 -23.75677734 2.05431641 -22.875 1.5 C-22.00681641 0.92958984 -22.00681641 0.92958984 -21.12109375 0.34765625 C-14.98998289 -2.96684219 -6.30251123 -2.81448021 0 0 Z " fill="#3EBAFE" transform="translate(326.4375,296.5625)"/>
<path d="M0 0 C1.03505173 -0.01283524 2.07010345 -0.02567047 3.13652039 -0.03889465 C4.2552504 -0.04628159 5.37398041 -0.05366852 6.52661133 -0.0612793 C7.67978348 -0.06935104 8.83295563 -0.07742279 10.02107239 -0.08573914 C12.46471656 -0.09957874 14.90838006 -0.11030144 17.35205078 -0.11816406 C21.07662979 -0.13535033 24.80031513 -0.17923625 28.5246582 -0.22338867 C30.90030273 -0.23351809 33.27595479 -0.24203341 35.65161133 -0.2487793 C36.76022018 -0.26628738 37.86882904 -0.28379547 39.0110321 -0.30183411 C46.4146015 -0.28122183 52.25663981 0.55918075 57.76098633 5.9934082 C58.30432617 6.85772461 58.30432617 6.85772461 58.85864258 7.73950195 C59.23891602 8.31829102 59.61918945 8.89708008 60.01098633 9.4934082 C63.04874735 15.11261422 62.9168095 22.50622992 61.27270508 28.56762695 C59.03703722 33.57399429 55.71207712 36.58700718 50.92114258 39.17700195 C47.62379612 40.27611744 45.19155513 40.29094755 41.72192383 40.2746582 C40.51342773 40.27143555 39.30493164 40.26821289 38.05981445 40.26489258 C36.16585937 40.25232422 36.16585937 40.25232422 34.23364258 40.23950195 C32.32228516 40.23273438 32.32228516 40.23273438 30.37231445 40.22583008 C27.22187694 40.21403069 24.07153309 40.19756793 20.92114258 40.17700195 C20.94208984 40.92272461 20.96303711 41.66844727 20.98461914 42.43676758 C21.06830892 45.8500392 21.11997051 49.26309419 21.17114258 52.67700195 C21.2046582 53.85004883 21.23817383 55.0230957 21.27270508 56.23168945 C21.34980226 63.09333892 21.09720604 68.53202708 16.92114258 74.17700195 C15.10473633 76.0168457 15.10473633 76.0168457 13.35864258 77.11450195 C12.77985352 77.49477539 12.20106445 77.87504883 11.60473633 78.2668457 C5.98553031 81.30460673 -1.40808539 81.17266888 -7.46948242 79.52856445 C-12.47584976 77.29289659 -15.48886264 73.9679365 -18.07885742 69.17700195 C-19.06044251 66.23224669 -19.22198852 64.26241736 -19.25585938 61.18994141 C-19.26869461 60.17491043 -19.28152985 59.15987946 -19.29475403 58.11408997 C-19.30214096 57.01723373 -19.30952789 55.9203775 -19.31713867 54.7902832 C-19.32521042 53.6593071 -19.33328217 52.52833099 -19.34159851 51.36308289 C-19.35543753 48.96651746 -19.3661605 46.56993233 -19.37402344 44.17333984 C-19.39120836 40.52118163 -19.4350945 36.86993515 -19.47924805 33.21801758 C-19.48937762 30.8879461 -19.49789289 28.55786693 -19.50463867 26.2277832 C-19.52214676 25.14104813 -19.53965485 24.05431305 -19.55769348 22.93464661 C-19.53686104 15.59456512 -18.64754059 9.79173265 -13.26245117 4.3371582 C-12.68624023 3.97493164 -12.1100293 3.61270508 -11.51635742 3.23950195 C-10.64817383 2.6690918 -10.64817383 2.6690918 -9.76245117 2.0871582 C-6.45149818 0.29724626 -3.6879668 0.03986297 0 0 Z " fill="#08EAFE" transform="translate(19.078857421875,214.822998046875)"/>
<path d="M0 0 C1.4530957 -0.04350586 1.4530957 -0.04350586 2.93554688 -0.08789062 C9.28791766 -0.1437262 14.04590314 0.61450249 19.3125 4.3125 C21.15234375 6.12890625 21.15234375 6.12890625 22.25 7.875 C22.63027344 8.45378906 23.01054687 9.03257812 23.40234375 9.62890625 C26.44010477 15.24811227 26.30816692 22.64172797 24.6640625 28.703125 C22.42839464 33.70949234 19.10343455 36.72250522 14.3125 39.3125 C9.80166419 40.81611194 5.35103195 40.57875703 0.625 40.625 C-0.34373047 40.65400391 -1.31246094 40.68300781 -2.31054688 40.71289062 C-8.66291766 40.7687262 -13.42090314 40.01049751 -18.6875 36.3125 C-20.52734375 34.49609375 -20.52734375 34.49609375 -21.625 32.75 C-22.00527344 32.17121094 -22.38554687 31.59242188 -22.77734375 30.99609375 C-25.81510477 25.37688773 -25.68316692 17.98327203 -24.0390625 11.921875 C-21.80339464 6.91550766 -18.47843455 3.90249478 -13.6875 1.3125 C-9.17666419 -0.19111194 -4.72603195 0.04624297 0 0 Z " fill="#45B3FE" transform="translate(370.6875,411.6875)"/>
<path d="M0 0 C4.89872999 2.85759249 7.79346527 7.1303958 9.5625 12.4375 C10.22384489 19.75566066 10.30340673 26.48380318 5.5625 32.4375 C-0.31091297 37.77696633 -5.52093201 38.80560469 -13.359375 38.7109375 C-18.60956546 38.24455002 -22.43333677 36.64207956 -26 32.71875 C-30.78040344 26.30866357 -31.13555921 20.29565224 -30.4375 12.4375 C-28.90478311 6.78676061 -25.94904415 3.51969493 -21.12109375 0.34765625 C-14.98998289 -2.96684219 -6.30251123 -2.81448021 0 0 Z " fill="#15DEFE" transform="translate(100.4375,403.5625)"/>
<path d="M0 0 C4.89872999 2.85759249 7.79346527 7.1303958 9.5625 12.4375 C10.22384489 19.75566066 10.30340673 26.48380318 5.5625 32.4375 C-0.31091297 37.77696633 -5.52093201 38.80560469 -13.359375 38.7109375 C-18.60956546 38.24455002 -22.43333677 36.64207956 -26 32.71875 C-30.78040344 26.30866357 -31.13555921 20.29565224 -30.4375 12.4375 C-28.90478311 6.78676061 -25.94904415 3.51969493 -21.12109375 0.34765625 C-14.98998289 -2.96684219 -6.30251123 -2.81448021 0 0 Z " fill="#4EACFE" transform="translate(502.4375,216.5625)"/>
<path d="M0 0 C4.89872999 2.85759249 7.79346527 7.1303958 9.5625 12.4375 C10.22384489 19.75566066 10.30340673 26.48380318 5.5625 32.4375 C-0.31091297 37.77696633 -5.52093201 38.80560469 -13.359375 38.7109375 C-18.60956546 38.24455002 -22.43333677 36.64207956 -26 32.71875 C-30.78040344 26.30866357 -31.13555921 20.29565224 -30.4375 12.4375 C-28.90478311 6.78676061 -25.94904415 3.51969493 -21.12109375 0.34765625 C-14.98998289 -2.96684219 -6.30251123 -2.81448021 0 0 Z " fill="#4AAFFE" transform="translate(432.4375,71.5625)"/>
<path d="M0 0 C4.89872999 2.85759249 7.79346527 7.1303958 9.5625 12.4375 C10.22384489 19.75566066 10.30340673 26.48380318 5.5625 32.4375 C-0.31091297 37.77696633 -5.52093201 38.80560469 -13.359375 38.7109375 C-18.60956546 38.24455002 -22.43333677 36.64207956 -26 32.71875 C-30.78040344 26.30866357 -31.13555921 20.29565224 -30.4375 12.4375 C-28.90478311 6.78676061 -25.94904415 3.51969493 -21.12109375 0.34765625 C-14.98998289 -2.96684219 -6.30251123 -2.81448021 0 0 Z " fill="#15DEFE" transform="translate(100.4375,71.5625)"/>
</svg>
